<?xml version="1.0" encoding="UTF-8"?>
<svg width="125px" height="99px" viewBox="0 0 125 99" version="1.1" xmlns="http://www.w3.org/2000/svg" xmlns:xlink="http://www.w3.org/1999/xlink">
    <!-- Generator: Sketch 46.2 (44496) - http://www.bohemiancoding.com/sketch -->
    <title>chair</title>
    <desc>Created with Sketch.</desc>
    <defs></defs>
    <g id="Page-1" stroke="none" stroke-width="1" fill="none" fill-rule="evenodd">
        <g id="Page" transform="translate(-272.000000, -1465.000000)">
            <g id="chair" transform="translate(272.000000, 1465.000000)">
                <ellipse id="Oval" fill="#FFF2CD" cx="81.9469274" cy="42.8767606" rx="42.9469274" ry="42.8767606"></ellipse>
                <g id="noun_1036898_cc" transform="translate(0.000000, 24.401408)" fill-rule="nonzero" fill="#3E4648">
                    <path d="M6.18515563,41.1825669 L6.18515563,60.0933099 C6.18515563,61.2371549 7.10880553,62.165493 8.24687417,62.165493 L12.6857542,62.165493 L14.4608939,72.8683187 C14.6258313,73.8650387 15.485568,74.5985915 16.4937483,74.5985915 L24.7406225,74.5985915 C25.7488029,74.5985915 26.6085395,73.8650387 26.773477,72.8683187 L28.5486167,62.165493 L58.0435621,62.165493 L59.8187018,72.8683187 C59.9836393,73.8650387 60.8433759,74.5985915 61.8515563,74.5985915 L70.0984304,74.5985915 C71.1066108,74.5985915 71.9663474,73.8650387 72.1312849,72.8683187 L73.9064246,62.165493 L78.3453046,62.165493 C79.4833732,62.165493 80.4070231,61.2371549 80.4070231,60.0933099 L80.4070231,41.1825669 C83.9593642,40.2604454 86.5921788,37.0112623 86.5921788,33.1549296 C86.5921788,28.5836937 82.8934557,24.8661972 78.3453046,24.8661972 L72.160149,24.8661972 C72.042631,24.8661972 71.9333599,24.8952077 71.8179037,24.9014243 C69.815975,10.7649912 57.7198723,0 43.2960894,0 C28.8723065,0 16.7762038,10.7649912 14.7742751,24.9014243 C14.6588188,24.8952077 14.5495478,24.8661972 14.4320298,24.8661972 L8.24687417,24.8661972 C3.69872306,24.8661972 0,28.5836937 0,33.1549296 C0,37.0091901 2.63281458,40.2583732 6.18515563,41.1825669 Z M22.9943469,70.4542254 L18.2400239,70.4542254 L16.8648577,62.165493 L24.3674514,62.165493 L22.9943469,70.4542254 Z M68.3521548,70.4542254 L63.5978319,70.4542254 L62.2226656,62.165493 L69.7252594,62.165493 L68.3521548,70.4542254 Z M18.7554536,26.119868 C20.188348,13.6909137 30.7175446,4.1443662 43.2960894,4.1443662 C55.8746342,4.1443662 66.4038308,13.6909137 67.8367252,26.119868 C67.8202314,26.1302289 67.8037377,26.1447342 67.7872439,26.1550951 C67.5851955,26.2835704 67.3975791,26.4244789 67.2099628,26.5674595 C67.0347167,26.7000792 66.8677175,26.8409877 66.7048417,26.9860405 C66.519287,27.1518151 66.3378558,27.3134454 66.1687949,27.4937254 C65.9234504,27.7548204 65.6987231,28.0304208 65.4904895,28.3205264 C65.3667864,28.4925176 65.2575153,28.6707254 65.1461825,28.8510053 C64.9998005,29.0913785 64.8678505,29.3379683 64.7462091,29.5907746 C64.6740489,29.742044 64.5915802,29.8870968 64.5276669,30.0425106 C64.3627294,30.4445141 64.2410881,30.8651673 64.1400638,31.292037 C64.1091381,31.4267289 64.0843974,31.563493 64.0596568,31.7023292 C63.9730646,32.1789313 63.9132748,32.66175 63.9132748,33.1549296 L63.9132748,45.5880282 L22.678904,45.5880282 L22.678904,33.1549296 C22.678904,32.66175 22.6191141,32.1789313 22.5325219,31.7044014 C22.5077813,31.5655651 22.4830407,31.4308732 22.4521149,31.2941092 C22.3531524,30.8672394 22.2294493,30.4465863 22.0645118,30.0445827 C22.0005986,29.8870968 21.9181298,29.7441162 21.8459697,29.5928468 C21.7243283,29.3400405 21.5923783,29.0934507 21.4459963,28.8530775 C21.3346635,28.6727975 21.2253924,28.4945898 21.1016893,28.3225986 C20.8934557,28.032493 20.6666667,27.7568926 20.4233839,27.4957975 C20.254323,27.3155176 20.07083,27.1518151 19.8873371,26.9881127 C19.7244613,26.8430599 19.5574621,26.7021514 19.382216,26.5695317 C19.1925379,26.4265511 19.0049215,26.2835704 18.8049348,26.1571673 C18.7863794,26.1447342 18.7719473,26.1302289 18.7554536,26.119868 Z M8.24687417,29.0105634 L14.4320298,29.0105634 C14.9268422,29.0105634 15.3948524,29.1121004 15.8339984,29.2737306 C15.8422453,29.277875 15.8504922,29.2840915 15.858739,29.2882359 C16.2628359,29.4395053 16.6318835,29.6487958 16.9596967,29.9057465 C16.9596967,29.9057465 16.9596967,29.9057465 16.9617584,29.9078187 C17.5926443,30.4030704 18.0585927,31.0765299 18.320431,31.8328768 C18.3410482,31.8929701 18.3596036,31.9551356 18.3781591,32.0173011 C18.4853684,32.3820053 18.5554669,32.7612148 18.5554669,33.1549296 L18.5554669,47.6602113 C18.5554669,48.8040563 19.4791168,49.7323944 20.6171854,49.7323944 L65.9749933,49.7323944 C67.113062,49.7323944 68.0367119,48.8040563 68.0367119,47.6602113 L68.0367119,33.1549296 C68.0367119,32.7612148 68.1068103,32.3820053 68.2160814,32.0152289 C68.2346369,31.9530634 68.2531923,31.8908979 68.2738095,31.8308046 C68.5356478,31.0765299 68.9995345,30.4009982 69.632482,29.9057465 C69.632482,29.9057465 69.632482,29.9057465 69.6345438,29.9036743 C69.962357,29.6467236 70.3334663,29.4374331 70.7355015,29.2861637 C70.7437483,29.2820194 70.7519952,29.2758028 70.7602421,29.2716585 C71.1973264,29.1121004 71.6653365,29.0105634 72.160149,29.0105634 L78.3453046,29.0105634 C80.6193802,29.0105634 82.4687417,30.8693116 82.4687417,33.1549296 C82.4687417,35.4405475 80.6193802,37.2992958 78.3453046,37.2992958 C77.207236,37.2992958 76.2835861,38.2276338 76.2835861,39.3714789 L76.2835861,58.0211268 L10.3085927,58.0211268 L10.3085927,39.3714789 C10.3085927,38.2276338 9.3849428,37.2992958 8.24687417,37.2992958 C5.97279862,37.2992958 4.12343708,35.4405475 4.12343708,33.1549296 C4.12343708,30.8693116 5.97279862,29.0105634 8.24687417,29.0105634 Z" id="Shape"></path>
                    <path d="M99.1626089,43.4714167 C98.5760751,43.4714167 98.0188679,43.7257245 97.6208629,44.1734801 C97.2249525,44.6212357 97.02595,45.2189677 97.0741295,45.825394 L99.1688932,71.908244 C99.2610628,73.0363273 100.168095,73.9014085 101.257372,73.9014085 L109.636427,73.9014085 C110.725704,73.9014085 111.632737,73.0363273 111.724906,71.908244 L113.81967,45.825394 C113.867849,45.2189677 113.670942,44.6212357 113.272937,44.1734801 C112.874932,43.7257245 112.317724,43.4714167 111.731191,43.4714167 L107.541663,43.4714167 L107.541663,42.1977042 L113.212188,36.313848 L110.250193,33.2404188 L107.541663,36.0508459 L107.541663,26.9827084 L113.212188,21.0988521 L110.250193,18.0254229 L107.541663,20.83585 L107.541663,16.8734304 C109.998821,15.6997022 111.731191,12.5436773 111.731191,8.69428335 C111.731191,3.81896396 108.970292,0 105.4469,0 C101.923507,0 99.1626089,3.81896396 99.1626089,8.69428335 C99.1626089,12.5436773 100.894978,15.6997022 103.352136,16.8734304 L103.352136,29.5301334 L100.643607,26.7197063 L97.681611,29.7931355 L103.352136,35.6769917 L103.352136,43.4714167 L99.1626089,43.4714167 Z M105.4469,4.34714167 C106.301563,4.34714167 107.541663,6.04035336 107.541663,8.69428335 C107.541663,11.3482133 106.301563,13.041425 105.4469,13.041425 C104.592236,13.041425 103.352136,11.3482133 103.352136,8.69428335 C103.352136,6.04035336 104.592236,4.34714167 105.4469,4.34714167 Z M107.709244,69.5542668 L103.184555,69.5542668 L101.439617,47.8185584 L109.454183,47.8185584 L107.709244,69.5542668 Z" id="Shape"></path>
                </g>
            </g>
        </g>
    </g>
</svg>