<?xml version="1.0" encoding="UTF-8"?>
<svg width="138px" height="120px" viewBox="0 0 138 120" version="1.1" xmlns="http://www.w3.org/2000/svg" xmlns:xlink="http://www.w3.org/1999/xlink">
    <!-- Generator: Sketch 46.2 (44496) - http://www.bohemiancoding.com/sketch -->
    <title>repeat</title>
    <desc>Created with Sketch.</desc>
    <defs></defs>
    <g id="Page-1" stroke="none" stroke-width="1" fill="none" fill-rule="evenodd">
        <g id="Page" transform="translate(-256.000000, -1899.000000)">
            <g id="repeat" transform="translate(256.000000, 1899.000000)">
                <ellipse id="Oval" fill="#FFF2CD" cx="95.0530726" cy="42.8767606" rx="42.9469274" ry="42.8767606"></ellipse>
                <path d="M6.4967747,52.3263322 C6.55345603,58.8881302 8.75155264,65.216059 12.859,70.4742244 C17.793,76.7882244 24.89,80.8042244 32.844,81.7802244 C34.081,81.9322244 35.306,82.0062244 36.522,82.0062244 C43.984,82.0052244 50.956,79.2142244 56.296,74.5262244 C61.637,69.8372244 65.344,63.2512244 66.276,55.6602244 C67.253,47.7072244 65.074,39.8492244 60.14,33.5342244 C55.207,27.2192244 48.109,23.2042244 40.156,22.2282244 C35.882,21.7042244 31.647,22.0832244 27.565,23.3582244 C24.349,24.3632244 21.342,25.8952244 18.626,27.9102244 L21.605,31.9252244 C23.87,30.2452244 26.377,28.9682244 29.057,28.1312244 C32.454,27.0682244 35.981,26.7522244 39.547,27.1912244 C46.175,28.0042244 52.089,31.3502244 56.2,36.6122244 C60.312,41.8752244 62.127,48.4232244 61.314,55.0512244 C60.473,61.8922244 56.93,67.7532244 51.886,71.6942244 C46.841,75.6362244 40.296,77.6572244 33.453,76.8182244 C20.6691528,75.2475734 11.3049232,64.2334699 11.5017941,51.6336513 L15,55.3648244 L18.647,51.9448244 L9.324,41.9998244 L0,51.9448244 L3.648,55.3648244 L6.4967747,52.3263322 Z" id="Combined-Shape-Copy" fill="#3E4648"></path>
                <path d="M67.0000445,97.7897221 L63.648,101.365 L60,97.945 L69.324,88 L78.647,97.945 L75,101.365 L72.006362,98.1719971 C72.098326,101.720956 73.3171031,105.13479 75.5439051,107.984156 C78.2899051,111.500156 82.2399051,113.735156 86.6679051,114.278156 C95.8009051,115.389156 104.154905,108.878156 105.277905,99.738156 C106.399905,90.599156 99.8769051,82.251156 90.7379051,81.128156 C88.3539051,80.836156 85.9979051,81.047156 83.7319051,81.756156 C81.9419051,82.315156 80.2669051,83.168156 78.7529051,84.291156 L75.7749051,80.275156 C77.7389051,78.817156 79.9149051,77.710156 82.2399051,76.983156 C85.1889051,76.062156 88.2529051,75.785156 91.3469051,76.165156 C103.222905,77.624156 111.697905,88.472156 110.240905,100.347156 C108.891905,111.330156 99.5129051,119.404156 88.7179051,119.404156 C87.8399051,119.404156 86.9519051,119.350156 86.0579051,119.241156 C80.3049051,118.535156 75.1719051,115.631156 71.6029051,111.062156 C68.6015564,107.220463 67.0097319,102.58839 67.0000445,97.7897221 Z M69.3134668,95.3222347 L69.337277,95.3251612 L69.324,95.311 L69.3134668,95.3222347 Z" id="Combined-Shape-Copy-2" fill="#3E4648"></path>
                <path d="M88.0045918,40.784872 L84.648,44.365 L81,40.945 L90.324,31 L99.647,40.945 L96,44.365 L93.0294732,41.1966474 C93.4321669,47.4664149 98.2537882,52.7782756 104.711498,53.570334 C112.007498,54.468334 118.674498,49.258334 119.570498,41.961334 C120.004498,38.426334 119.036498,34.934334 116.843498,32.128334 C114.650498,29.321334 111.496498,27.536334 107.961498,27.103334 C106.060498,26.868334 104.179498,27.038334 102.368498,27.603334 C100.938498,28.049334 99.601498,28.731334 98.393498,29.627334 L95.412498,25.613334 C97.073498,24.380334 98.911498,23.444334 100.876498,22.830334 C103.371498,22.051334 105.961498,21.818334 108.571498,22.140334 C113.431498,22.736334 117.768498,25.191334 120.783498,29.049334 C123.798498,32.908334 125.130498,37.710334 124.533498,42.570334 C123.393498,51.849334 115.470498,58.671334 106.349498,58.671334 C105.607498,58.671334 104.857498,58.626334 104.102498,58.533334 C99.242498,57.937334 94.904498,55.483334 91.889498,51.623334 C89.431586,48.4781849 88.0921899,44.7049922 88.0045918,40.784872 Z M90.2740633,38.3642623 L90.3869205,38.3781108 L90.324,38.311 L90.2740633,38.3642623 Z" id="Combined-Shape" fill="#3E4648"></path>
            </g>
        </g>
    </g>
</svg>