<?xml version="1.0" encoding="UTF-8"?>
<svg width="174px" height="87px" viewBox="0 0 174 87" version="1.1" xmlns="http://www.w3.org/2000/svg" xmlns:xlink="http://www.w3.org/1999/xlink">
    <!-- Generator: Sketch 46.2 (44496) - http://www.bohemiancoding.com/sketch -->
    <title>sound</title>
    <desc>Created with Sketch.</desc>
    <defs></defs>
    <g id="Page-1" stroke="none" stroke-width="1" fill="none" fill-rule="evenodd">
        <g id="functionality" transform="translate(-106.000000, -571.000000)">
            <g id="Group-6" transform="translate(32.000000, 497.000000)">
                <g id="sound" transform="translate(74.000000, 74.000000)">
                    <ellipse id="Oval" fill="#FFF2CD" cx="43" cy="34.5" rx="35" ry="34.5"></ellipse>
                    <g id="noun_687971_cc" transform="translate(0.000000, 9.000000)" fill-rule="nonzero" fill="#3E4648">
                        <g id="Group">
                            <path d="M42.176087,64.6755594 C40.8521739,64.6755594 39.9065217,63.7246127 39.9065217,62.3932874 L39.9065217,15.6067126 C39.9065217,14.2753873 40.8521739,13.3244406 42.176087,13.3244406 C43.5,13.3244406 44.4456522,14.2753873 44.4456522,15.6067126 L44.4456522,62.2030981 C44.4456522,63.5344234 43.3108696,64.6755594 42.176087,64.6755594 Z" id="Shape"></path>
                            <path d="M52.0108696,77.9888124 C50.6869565,77.9888124 49.7413043,77.0378657 49.7413043,75.7065404 L49.7413043,2.29345955 C49.7413043,0.962134251 50.6869565,0.0111876076 52.0108696,0.0111876076 C53.3347826,0.0111876076 54.2804348,0.962134251 54.2804348,2.29345955 L54.2804348,75.5163511 C54.4695652,76.8476764 53.3347826,77.9888124 52.0108696,77.9888124 Z" id="Shape"></path>
                            <path d="M91.9173913,51.172117 C90.5934783,51.172117 89.6478261,50.2211704 89.6478261,48.8898451 L89.6478261,29.1101549 C89.6478261,27.7788296 90.5934783,26.827883 91.9173913,26.827883 C93.2413043,26.827883 94.1869565,27.7788296 94.1869565,29.1101549 L94.1869565,49.0800344 C94.1869565,50.2211704 93.2413043,51.172117 91.9173913,51.172117 Z" id="Shape"></path>
                            <path d="M101.941304,58.3993115 C100.617391,58.3993115 99.6717391,57.4483649 99.6717391,56.1170396 L99.6717391,21.8829604 C99.6717391,20.5516351 100.617391,19.6006885 101.941304,19.6006885 C103.265217,19.6006885 104.21087,20.5516351 104.21087,21.8829604 L104.21087,56.1170396 C104.21087,57.4483649 103.265217,58.3993115 101.941304,58.3993115 Z" id="Shape"></path>
                            <path d="M111.965217,47.9388985 C110.641304,47.9388985 109.695652,46.9879518 109.695652,45.6566265 L109.695652,32.5335628 C109.695652,31.2022375 110.641304,30.2512909 111.965217,30.2512909 C113.28913,30.2512909 114.234783,31.2022375 114.234783,32.5335628 L114.234783,45.6566265 C114.234783,46.7977625 113.1,47.9388985 111.965217,47.9388985 Z" id="Shape"></path>
                            <path d="M131.823913,46.0370052 C130.5,46.0370052 129.554348,45.0860585 129.554348,43.7547332 L129.554348,34.2452668 C129.554348,32.9139415 130.5,31.9629948 131.823913,31.9629948 C133.147826,31.9629948 134.093478,32.9139415 134.093478,34.2452668 L134.093478,43.7547332 C134.093478,44.8958692 133.147826,46.0370052 131.823913,46.0370052 Z" id="Shape"></path>
                            <path d="M62.0347826,66.0068847 C60.7108696,66.0068847 59.7652174,65.055938 59.7652174,63.7246127 L59.7652174,14.2753873 C59.7652174,12.944062 60.7108696,11.9931153 62.0347826,11.9931153 C63.3586957,11.9931153 64.3043478,12.944062 64.3043478,14.2753873 L64.3043478,63.7246127 C64.3043478,65.055938 63.3586957,66.0068847 62.0347826,66.0068847 Z" id="Shape"></path>
                            <path d="M72.0586957,58.3993115 C70.7347826,58.3993115 69.7891304,57.4483649 69.7891304,56.1170396 L69.7891304,21.8829604 C69.7891304,20.5516351 70.7347826,19.6006885 72.0586957,19.6006885 C73.3826087,19.6006885 74.3282609,20.5516351 74.3282609,21.8829604 L74.3282609,56.1170396 C74.3282609,57.4483649 73.3826087,58.3993115 72.0586957,58.3993115 Z" id="Shape"></path>
                            <path d="M82.0826087,64.6755594 C80.7586957,64.6755594 79.8130435,63.7246127 79.8130435,62.3932874 L79.8130435,15.6067126 C79.8130435,14.2753873 80.7586957,13.3244406 82.0826087,13.3244406 C83.4065217,13.3244406 84.3521739,14.2753873 84.3521739,15.6067126 L84.3521739,62.2030981 C84.3521739,63.5344234 83.2173913,64.6755594 82.0826087,64.6755594 Z" id="Shape"></path>
                            <path d="M32.1521739,53.0740103 C30.8282609,53.0740103 29.8826087,52.1230637 29.8826087,50.7917384 L29.8826087,27.2082616 C29.8826087,25.8769363 30.8282609,24.9259897 32.1521739,24.9259897 C33.476087,24.9259897 34.4217391,25.8769363 34.4217391,27.2082616 L34.4217391,50.9819277 C34.4217391,52.1230637 33.476087,53.0740103 32.1521739,53.0740103 Z" id="Shape"></path>
                            <path d="M121.98913,43.9449225 C120.665217,43.9449225 119.719565,42.9939759 119.719565,41.6626506 L119.719565,36.5275387 C119.719565,35.1962134 120.665217,34.2452668 121.98913,34.2452668 C123.313043,34.2452668 124.258696,35.1962134 124.258696,36.5275387 L124.258696,41.6626506 C124.258696,42.8037866 123.123913,43.9449225 121.98913,43.9449225 Z" id="Shape"></path>
                            <path d="M151.871739,47.7487091 C150.547826,47.7487091 149.602174,46.7977625 149.602174,45.4664372 L149.602174,32.7237522 C149.602174,31.3924269 150.547826,30.4414802 151.871739,30.4414802 C153.195652,30.4414802 154.141304,31.3924269 154.141304,32.7237522 L154.141304,45.4664372 C154.141304,46.6075731 153.006522,47.7487091 151.871739,47.7487091 Z" id="Shape"></path>
                            <path d="M161.706522,44.3253012 C160.382609,44.3253012 159.436957,43.3743546 159.436957,42.0430293 L159.436957,35.7667814 C159.436957,34.4354561 160.382609,33.4845095 161.706522,33.4845095 C163.030435,33.4845095 163.976087,34.4354561 163.976087,35.7667814 L163.976087,42.0430293 C163.976087,43.3743546 163.030435,44.3253012 161.706522,44.3253012 Z" id="Shape"></path>
                            <path d="M171.730435,41.2822719 C170.406522,41.2822719 169.46087,40.3313253 169.46087,39 L169.46087,39 C169.46087,37.6686747 170.406522,36.7177281 171.730435,36.7177281 C173.054348,36.7177281 174,37.6686747 174,39 C174,40.3313253 173.054348,41.2822719 171.730435,41.2822719 Z" id="Shape"></path>
                            <path d="M2.26956522,42.8037866 C0.945652174,42.8037866 0,41.8528399 0,40.5215146 L0,37.4784854 C0,36.1471601 0.945652174,35.1962134 2.26956522,35.1962134 C3.59347826,35.1962134 4.53913043,36.1471601 4.53913043,37.4784854 L4.53913043,40.5215146 C4.53913043,41.8528399 3.59347826,42.8037866 2.26956522,42.8037866 Z" id="Shape"></path>
                            <path d="M22.1282609,44.8958692 C20.8043478,44.8958692 19.8586957,43.9449225 19.8586957,42.6135972 L19.8586957,35.5765921 C19.8586957,34.2452668 20.8043478,33.2943201 22.1282609,33.2943201 C23.4521739,33.2943201 24.3978261,34.2452668 24.3978261,35.5765921 L24.3978261,42.6135972 C24.3978261,43.7547332 23.4521739,44.8958692 22.1282609,44.8958692 Z" id="Shape"></path>
                            <path d="M12.2934783,47.9388985 C10.9695652,47.9388985 10.023913,46.9879518 10.023913,45.6566265 L10.023913,32.5335628 C10.023913,31.2022375 10.9695652,30.2512909 12.2934783,30.2512909 C13.6173913,30.2512909 14.5630435,31.2022375 14.5630435,32.5335628 L14.5630435,45.6566265 C14.5630435,46.7977625 13.4282609,47.9388985 12.2934783,47.9388985 Z" id="Shape"></path>
                            <path d="M141.847826,42.8037866 C140.523913,42.8037866 139.578261,41.8528399 139.578261,40.5215146 L139.578261,37.288296 C139.578261,35.9569707 140.523913,35.0060241 141.847826,35.0060241 C143.171739,35.0060241 144.117391,35.9569707 144.117391,37.288296 L144.117391,40.5215146 C144.117391,41.8528399 143.171739,42.8037866 141.847826,42.8037866 Z" id="Shape"></path>
                        </g>
                    </g>
                </g>
            </g>
        </g>
    </g>
</svg>