<?xml version="1.0" encoding="UTF-8"?>
<svg width="111px" height="97px" viewBox="0 0 111 97" version="1.1" xmlns="http://www.w3.org/2000/svg" xmlns:xlink="http://www.w3.org/1999/xlink">
    <!-- Generator: Sketch 46.2 (44496) - http://www.bohemiancoding.com/sketch -->
    <title>wander</title>
    <desc>Created with Sketch.</desc>
    <defs></defs>
    <g id="Page-1" stroke="none" stroke-width="1" fill="none" fill-rule="evenodd">
        <g id="Page" transform="translate(-688.000000, -2167.000000)">
            <g id="wander" transform="translate(692.000000, 2167.000000)">
                <g id="Group-8">
                    <circle id="Oval" fill="#FFF2CD" cx="64" cy="43" r="43"></circle>
                    <path d="M20.7676955,95.6961539 L19.1474234,84.6569441 L7.42343882,85.8186055 L6.36515046,70.7981069 L0,70.7981069 L5.28344611,55.475485 C5.37704296,47.3391083 7.18597161,41.4055978 10.7102321,37.6749533 C14.9068454,33.2325823 19.2356344,29 28.0335047,29 C36.9513785,29 43.6694821,32.3250701 48.1878156,38.9752102 C51.2056222,42.8211432 52.7145256,47.7449731 52.7145256,53.7466998 C52.7693532,54.1356336 46.4316166,76.7914572 46.4316166,76.7914572 C46.4316166,76.7914572 47.4327928,83.0930228 49.4351452,95.6961539" id="Path-3" stroke="#3E4648" stroke-width="5"></path>
                    <polygon id="Rectangle" fill="#FFF2CD" transform="translate(46.175781, 39.834509) rotate(43.000000) translate(-46.175781, -39.834509) " points="35.0124622 33.7835651 57.3391004 35.7202167 54.4763213 45.8854538 36.2719403 43.1000096"></polygon>
                    <path d="M33.1667554,49.8056377 L45.1532833,65.0164928 L57.1398112,49.8056377 L50.9712115,49.8056377 L50.5430562,47.8369161 C49.1220679,41.3030011 48.4563665,35.9255803 48.5588148,31.6724921 C48.6431889,28.1697403 49.2945013,23.6060026 50.5097296,17.9582339 C47.5885148,21.5716164 45.2088411,25.5882213 43.3666245,30.0140407 C40.5819139,36.7041477 39.2108623,42.4738247 39.2212743,47.3002445 L39.2266792,49.8056377 L33.1667554,49.8056377 Z" id="Combined-Shape" stroke="#3E4648" stroke-width="5" transform="translate(45.153283, 39.372938) rotate(-131.000000) translate(-45.153283, -39.372938) "></path>
                </g>
                <g id="Group-6" transform="translate(0.000000, 6.000000)"></g>
            </g>
        </g>
    </g>
</svg>